<?xml version="1.0" encoding="utf-8"?>
<svg xmlns="http://www.w3.org/2000/svg" xmlns:xlink="http://www.w3.org/1999/xlink" x="0px" y="0px" viewBox="0 0 398 130" xml:space="preserve">
<style>
.shape-logo{fill:#fff;}
.shape-logo{stroke:#fff;}
</style>

<path class="shape-logo" d="M218.3,76.3c-11.8-12.2-23.6-24.4-35.4-36.7c-0.1,0-0.2,0.1-0.3,0.1c0,0.5,0,1,0,1.5
c0.1,10.8,0.1,21.5,0.2,32.3c0,1.5,0,1.5-1.5,1.5c-2,0-4,0-6,0c-1,0-1.3-0.3-1.3-1.3c0.1-10.3,0.1-20.6,0.2-31
c0.1-7.7,0.1-15.4,0.2-23.1c0-0.4,0-0.7,0-1.1c0.1-0.1,0.2-0.1,0.3-0.2C186.4,30.6,198,42.7,209.9,55c0-0.6,0.1-0.9,0.1-1.2
c0-11,0-21.9-0.1-32.9c0-1,0.3-1.2,1.2-1.2c2.2,0.1,4.3,0.1,6.5,0.1c0.9,0,1.4,0.3,1.4,1.4c-0.1,10.7-0.1,21.3-0.1,32
c0,7.3-0.1,14.6-0.2,21.9c0,0.4-0.1,0.8-0.1,1.2C218.5,76.3,218.4,76.3,218.3,76.3"/>


<path class="shape-logo" d="M142.4,57.5c-3-7-5.8-13.7-8.6-20.4c-0.1,0-0.2,0-0.3,0.1c-3.1,6.8-6.3,13.6-9.4,20.4L142.4,57.5L142.4,57.5z
M159.1,74.5c-0.4,0.1-0.6,0.1-0.7,0.1c-2.3,0.1-4.5,0.1-6.8,0.2c-0.9,0-1.4-0.3-1.8-1.1c-1.1-2.6-2.2-5.1-3.3-7.7
c-0.3-0.7-0.7-1-1.5-1c-7.8,0.1-15.5,0.1-23.3,0.2c-0.7,0-1.1,0.3-1.4,0.9c-1.2,2.7-2.5,5.3-3.7,8c-0.4,0.8-0.9,1.1-1.7,1.1
c-2.1-0.1-4.2,0-6.3,0c-0.3,0-0.6,0-1.2-0.1c8.8-18.9,17.4-37.7,26.1-56.5c0.1,0,0.2,0,0.4-0.1C142.3,37.2,150.7,55.8,159.1,74.5"
/>


<path class="shape-logo" d="M90.6,29.5c-0.9-0.4-1.5-0.7-2.2-1c-3.7-1.6-7.5-3-11.7-2.8c-2.4,0.1-4.6,0.8-5.9,3c-1.4,2.4-1.1,4.8,0.4,7
c1.4,2.3,3.6,3.7,5.8,5.1c3.4,2.2,7,4.3,10.2,6.7c8,6,7.5,16.8,2.8,23c-2.7,3.6-6.4,5.6-10.9,6.1c-4.9,0.5-9.6,0.2-14.2-1.6
c-1.4-0.5-2.7-1.3-4-2.1c-0.3-0.2-0.6-0.6-0.6-0.9c0.1-2.6,0.2-5.3,0.4-7.9c0-0.1,0.1-0.1,0.2-0.3c0.6,0.3,1.2,0.6,1.8,0.9
c3.3,1.7,6.7,3.4,10.5,3.9c3.5,0.5,6.8-0.2,9.5-2.5c3-2.6,3.4-8,0.7-10.5c-1.6-1.4-3.4-2.5-5.2-3.8c-3.6-2.5-7.2-4.9-10.8-7.5
c-8-5.9-7.7-15.7-2-22.1c2.2-2.4,5.2-3.6,8.4-4c5.7-0.8,11,0.4,16.2,2.6c0.3,0.1,0.7,0.6,0.7,0.8C90.7,24.3,90.6,26.8,90.6,29.5"
/>


<path class="shape-logo" d="M278.3,26.1c-1.3-0.5-2.4-1.1-3.5-1.4c-2.5-0.5-5-1.1-7.5-1.2c-3.7-0.2-7.5,0.1-11.2,0.1
c-0.8,0-1.1,0.3-1.1,1.2c0.1,8.1,0,16.3,0.3,24.4c0.2,5.7,1.2,11.2,4,16.3c2.9,5.4,7.5,8.5,13.7,9.2c5,0.6,9.8-0.3,14.6-1.6
c0.5-0.1,1-0.3,1.7-0.4c0.1,1.5,0.2,3,0.2,4.4c0,0.2-0.5,0.5-0.8,0.5c-1.1,0.1-2.2,0-3.4,0c-3.2,0-6.3,0.1-9.5,0.1
c-7,0.1-13.3-2-18.7-6.5c-5.8-4.7-9.8-10.6-11.7-17.8c-0.8-3.2-1-6.6-1.1-9.9c-0.2-6.2-0.2-12.4-0.2-18.5c0-0.9-0.3-1.1-1.1-1.1
c-1.9,0-3.7-0.1-5.6-0.1c-0.8,0-1.1-0.3-1-1c0-0.4,0-0.8,0-1.2c0-1.8,0-1.8,1.8-1.8c1.7,0,3.4-0.1,5.1,0c0.9,0,1.1-0.3,1.1-1.1
c0-2.2,0-4.3-0.1-6.5c0-0.9,0.3-1.2,1.2-1.2c2.6,0,5.3,0,7.9,0c1.4,0,1.4,0,1.4,1.4c0,2.1,0,4.2,0,6.3c0,1.3,0,1.3,1.3,1.3
c7,0,14.1,0,21.1-0.1c1.5,0,1.4,0,1.3,1.5C278.4,22.9,278.3,24.4,278.3,26.1"/>


<path class="shape-logo" d="M308.5,45h1.6c5.8,0,11.7,0,17.5,0c0.5,0,1.1,0.1,1.1-0.8c-0.1-3.4-1.1-6.5-3.9-8.6
c-3.3-2.5-6.9-2.7-10.5-0.7C310.5,37,309,40.6,308.5,45 M336.3,74.2c0,0.8,0,1.4,0,2c0,0.2-0.3,0.6-0.5,0.6
c-2.4,0.7-4.8,1.6-7.3,1.9c-2.7,0.3-5.5,0.1-8.2-0.2c-4.2-0.4-8-1.9-11.4-4.5c-3.9-3-5.9-7.2-7.2-11.8c-1.5-5.2-1.6-10.4-0.5-15.7
c0.4-2.1,0.9-4.1,1.5-6.1c1.8-6,6.2-9,12-10.3c2.1-0.5,4.4-0.6,6.6-0.6c4.8,0,9,1.6,12.4,5c2.3,2.2,3.3,5.1,3.7,8.2
c0.2,1.6,0.2,3.2,0.3,4.9c0.1,1-0.3,1.3-1.3,1.3c-5.7-0.1-11.3-0.1-17-0.2c-3.3,0-6.5-0.1-9.8-0.2c-1,0-1.3,0.4-1.4,1.3
c-0.3,4.8,0.5,9.4,3,13.4c3.6,5.7,8.4,10.3,15.3,11.7c2.8,0.6,5.7,0.3,8.5-0.5C335.4,74.4,335.8,74.3,336.3,74.2"/>


<path class="shape-logo" d="M330.8,1.6c-0.4,0.5-0.7,0.9-1,1.3c-3.7,4.5-7.4,8.9-11.1,13.4c-0.4,0.5-0.9,0.8-1.5,0.7
c-1.4-0.1-2.8-0.2-4.2-0.2c0.1-0.3,0.1-0.6,0.2-0.8c2.6-4.7,5.3-9.3,7.9-14c0.2-0.3,0.6-0.7,0.9-0.7c2.7,0,5.5,0,8.2,0.1
C330.4,1.4,330.5,1.5,330.8,1.6"/>



<path class="shape-logo" d="M2.2,106.1l4.9,11.8l3.5-8.3c0.1-0.2,0.3-0.3,0.5-0.3c0.2,0,0.4,0.1,0.5,0.3l3.5,8.3l4.9-11.8
c0.1-0.2,0.4-0.4,0.7-0.2c0.2,0.1,0.4,0.4,0.2,0.6l-5.4,12.8c-0.1,0.2-0.3,0.3-0.4,0.3h0H15c-0.1,0-0.2,0-0.2-0.1
c0,0-0.1,0-0.1-0.1c0,0-0.1-0.1-0.1-0.1c0,0,0,0,0-0.1l-3.5-8.4l-3.5,8.4c0,0,0,0.1,0,0.1c0,0.1-0.1,0.1-0.1,0.1c0,0,0,0,0,0
c-0.1,0.1-0.2,0.1-0.3,0.1c-0.1,0-0.2,0-0.3-0.1l0,0l0,0c-0.1-0.1-0.1-0.1-0.1-0.2l-5.3-12.7c-0.1-0.2,0-0.5,0.2-0.6
C1.8,105.8,2.1,105.9,2.2,106.1z"/>


<path class="shape-logo" d="M31.2,106.2c0-0.3,0.2-0.5,0.5-0.5h0h7.1c0.3,0,0.5,0.2,0.5,0.5c0,0.3-0.2,0.5-0.5,0.5h-6.6v5.5h5.8
c0.3,0,0.5,0.2,0.5,0.5c0,0.3-0.2,0.5-0.5,0.5h-5.8v5.5h6.6c0.3,0,0.5,0.2,0.5,0.5c0,0.3-0.2,0.5-0.5,0.5h-7.1h-0.1h0
c-0.2,0-0.4-0.2-0.4-0.5V106.2z"/>
<path class="shape-logo" d="M50.4,119.6L50.4,119.6c-0.3,0-0.5-0.2-0.5-0.5v-12.9c0-0.3,0.2-0.5,0.5-0.5c0.3,0,0.5,0.2,0.5,0.5v12.4h6.6
c0.3,0,0.5,0.2,0.5,0.5c0,0.3-0.2,0.5-0.5,0.5H50.4z"/>
<path class="shape-logo" d="M68.5,119.6L68.5,119.6c-0.3,0-0.5-0.2-0.5-0.5v-12.9c0-0.3,0.2-0.5,0.5-0.5c0.3,0,0.5,0.2,0.5,0.5v12.4h6.6
c0.3,0,0.5,0.2,0.5,0.5c0,0.3-0.2,0.5-0.5,0.5H68.5z"/>


<path class="shape-logo" d="M89.3,107.8v11.3c0,0.3-0.2,0.5-0.5,0.5c-0.3,0-0.5-0.2-0.5-0.5v-12.7c-0.1-0.2,0-0.4,0.2-0.5
c0.2-0.1,0.5-0.1,0.7,0.1l8.4,11.6v-11.3c0-0.3,0.2-0.5,0.5-0.5c0.3,0,0.5,0.2,0.5,0.5v12.7c0,0.3-0.2,0.5-0.5,0.5
c-0.2,0-0.3-0.1-0.4-0.2c0,0-0.1,0-0.1-0.1L89.3,107.8z"/>


<path class="shape-logo" d="M110,106.2c0-0.3,0.2-0.5,0.5-0.5h0h7.1c0.3,0,0.5,0.2,0.5,0.5c0,0.3-0.2,0.5-0.5,0.5h-6.6v5.5h5.8
c0.3,0,0.5,0.2,0.5,0.5c0,0.3-0.2,0.5-0.5,0.5h-5.8v5.5h6.6c0.3,0,0.5,0.2,0.5,0.5c0,0.3-0.2,0.5-0.5,0.5h-7.1h-0.1h0
c-0.2,0-0.4-0.2-0.4-0.5V106.2z"/>


<path class="shape-logo" d="M128.7,117c0.2-0.2,0.4-0.2,0.6-0.1c1,0.8,2.7,1.8,4.5,1.8c1.2,0,2.3-0.4,3-0.9c0.8-0.6,1.2-1.3,1.2-2.1
c0-0.8-0.4-1.4-1.1-1.9c-0.8-0.5-1.9-0.9-3.2-1.1h0c-1.3-0.2-2.4-0.6-3.3-1.2c-0.8-0.6-1.4-1.4-1.4-2.4c0-1,0.6-2,1.4-2.6
c0.9-0.6,2-1,3.3-1c1.8,0,3.2,0.9,4.3,1.6c0.2,0.1,0.3,0.4,0.1,0.6c-0.1,0.2-0.4,0.3-0.6,0.1c-1.1-0.7-2.3-1.5-3.8-1.5
c-1.1,0-2.1,0.3-2.8,0.8c-0.7,0.5-1.1,1.2-1.1,1.9c0,0.7,0.3,1.2,1,1.7c0.7,0.5,1.7,0.8,3,1h0c1.4,0.3,2.6,0.7,3.5,1.3
c0.9,0.6,1.5,1.5,1.5,2.6c0,1.1-0.6,2.1-1.6,2.8s-2.2,1.1-3.6,1.1c-2.1,0-4-1.1-5.1-2C128.6,117.5,128.6,117.2,128.7,117z"/>


<path class="shape-logo" d="M149.4,117c0.2-0.2,0.4-0.2,0.6-0.1c1,0.8,2.7,1.8,4.5,1.8c1.2,0,2.3-0.4,3-0.9c0.8-0.6,1.2-1.3,1.2-2.1
c0-0.8-0.4-1.4-1.1-1.9c-0.8-0.5-1.9-0.9-3.2-1.1h0c-1.3-0.2-2.4-0.6-3.3-1.2c-0.8-0.6-1.4-1.4-1.4-2.4c0-1,0.6-2,1.4-2.6
c0.9-0.6,2-1,3.3-1c1.8,0,3.2,0.9,4.3,1.6c0.2,0.1,0.3,0.4,0.1,0.6c-0.1,0.2-0.4,0.3-0.6,0.1c-1.1-0.7-2.3-1.5-3.8-1.5
c-1.1,0-2.1,0.3-2.8,0.8c-0.7,0.5-1.1,1.2-1.1,1.9c0,0.7,0.3,1.2,1,1.7c0.7,0.5,1.7,0.8,3,1h0c1.4,0.3,2.6,0.7,3.5,1.3
c0.9,0.6,1.5,1.5,1.5,2.6c0,1.1-0.6,2.1-1.6,2.8s-2.2,1.1-3.6,1.1c-2.1,0-4-1.1-5.1-2C149.3,117.5,149.3,117.2,149.4,117z"/>


<path class="shape-logo" d="M185.5,116.5c0-1-0.5-1.6-1.1-2.1c-0.6-0.4-1.3-0.7-1.6-0.7c-0.1,0-0.1,0-0.1,0h-3.4v5.5
c0,0.3-0.2,0.5-0.5,0.5c-0.3,0-0.5-0.2-0.5-0.5v-12.9c0-0.2,0.2-0.5,0.4-0.5h0h0.1h3.9c2.2,0,3.9,1.8,3.9,4c0,1.6-0.9,2.9-2.3,3.6
c0.1,0,0.1,0.1,0.2,0.1c0.9,0.5,1.9,1.5,1.9,3.1c0,0.8,0.1,1.3,0.2,1.6c0.1,0.2,0.2,0.3,0.2,0.3c0.2,0,0.5,0.1,0.5,0.3
c0.1,0.3-0.1,0.5-0.3,0.6c0,0-0.1,0-0.2,0h0c-0.3,0-0.7-0.2-0.9-0.6C185.7,118.3,185.5,117.6,185.5,116.5z M182.8,106.7h-3.4v6h3.3
h0.2c1.6,0,2.9-1.4,2.9-3C185.7,108.1,184.4,106.7,182.8,106.7z"/>
<path class="shape-logo" d="M198,106.2c0-0.3,0.2-0.5,0.5-0.5h0h7.1c0.3,0,0.5,0.2,0.5,0.5c0,0.3-0.2,0.5-0.5,0.5H199v5.5h5.8
c0.3,0,0.5,0.2,0.5,0.5c0,0.3-0.2,0.5-0.5,0.5H199v5.5h6.6c0.3,0,0.5,0.2,0.5,0.5c0,0.3-0.2,0.5-0.5,0.5h-7.1h-0.1h0
c-0.2,0-0.4-0.2-0.4-0.5V106.2z"/>


<path class="shape-logo" d="M221.7,106.7h-4.2c-0.3,0-0.5-0.2-0.5-0.5c0-0.3,0.2-0.5,0.5-0.5h9.3c0.3,0,0.5,0.2,0.5,0.5
c0,0.3-0.2,0.5-0.5,0.5h-4.2v12.4c0,0.3-0.2,0.5-0.5,0.5s-0.5-0.2-0.5-0.5V106.7z"/>


<path class="shape-logo" d="M245.5,116.5c0-1-0.5-1.6-1.1-2.1c-0.6-0.4-1.3-0.7-1.6-0.7c-0.1,0-0.1,0-0.1,0h-3.4v5.5
c0,0.3-0.2,0.5-0.5,0.5c-0.3,0-0.5-0.2-0.5-0.5v-12.9c0-0.2,0.2-0.5,0.4-0.5h0h0.1h3.9c2.2,0,3.9,1.8,3.9,4c0,1.6-0.9,2.9-2.3,3.6
c0.1,0,0.1,0.1,0.2,0.1c0.9,0.5,1.9,1.5,1.9,3.1c0,0.8,0.1,1.3,0.2,1.6c0.1,0.2,0.2,0.3,0.2,0.3c0.2,0,0.5,0.1,0.5,0.3
c0.1,0.3-0.1,0.5-0.3,0.6c0,0-0.1,0-0.2,0h0c-0.3,0-0.7-0.2-0.9-0.6C245.7,118.3,245.5,117.6,245.5,116.5z M242.8,106.7h-3.4v6h3.3
h0.2c1.6,0,2.9-1.4,2.9-3C245.7,108.1,244.4,106.7,242.8,106.7z"/>
<path class="shape-logo" d="M258,106.2c0-0.3,0.2-0.5,0.5-0.5h0h7.1c0.3,0,0.5,0.2,0.5,0.5c0,0.3-0.2,0.5-0.5,0.5H259v5.5h5.8
c0.3,0,0.5,0.2,0.5,0.5c0,0.3-0.2,0.5-0.5,0.5H259v5.5h6.6c0.3,0,0.5,0.2,0.5,0.5c0,0.3-0.2,0.5-0.5,0.5h-7.1h-0.1h0
c-0.2,0-0.4-0.2-0.4-0.5V106.2z"/>


<path class="shape-logo" d="M285.6,116h-6.3l-1.2,3.3c-0.1,0.2-0.3,0.3-0.5,0.3c0,0-0.1,0-0.2,0c-0.2-0.1-0.4-0.4-0.3-0.6l4.8-12.8
c0.1-0.2,0.3-0.3,0.5-0.3c0.2,0,0.4,0.1,0.5,0.3l4.8,12.8c0.1,0.2,0,0.5-0.3,0.6c-0.1,0-0.1,0-0.2,0c-0.2,0-0.4-0.1-0.5-0.3
L285.6,116z M279.7,115.1h5.6l-2.8-7.4L279.7,115.1z"/>


<path class="shape-logo" d="M300.1,106.7H296c-0.3,0-0.5-0.2-0.5-0.5c0-0.3,0.2-0.5,0.5-0.5h9.3c0.3,0,0.5,0.2,0.5,0.5
c0,0.3-0.2,0.5-0.5,0.5h-4.2v12.4c0,0.3-0.2,0.5-0.5,0.5c-0.3,0-0.5-0.2-0.5-0.5V106.7z"/>


<path class="shape-logo" d="M324.1,111.3c-0.6-0.6-0.9-1.4-0.9-2.2c0-1.9,1.5-3.3,3.3-3.3s3.3,1.5,3.3,3.3c0,0.3-0.2,0.5-0.5,0.5
c-0.3,0-0.5-0.2-0.5-0.5c0-1.3-1.1-2.4-2.4-2.4c-1.3,0-2.4,1-2.4,2.4c0,0.8,0.4,1.5,1,1.9c0.2,0.1,0.3,0.4,0.2,0.6
c0,0.1-0.1,0.2-0.2,0.2c-0.1,0-0.1,0.1-0.2,0.1c-1.1,0.6-1.9,1.8-1.9,3.2c0,2,1.6,3.6,3.6,3.6s3.6-1.6,3.6-3.6c0-0.3,0-0.6-0.1-0.8
c-0.2,0-0.4,0-0.6,0c-1.3,0-1.9,0.3-2.2,0.6c-0.3,0.3-0.4,0.7-0.4,1c0,0.2,0,0.3,0.1,0.4c0.1,0.3-0.1,0.5-0.3,0.6
c-0.1,0-0.1,0-0.1,0c-0.2,0-0.4-0.1-0.5-0.3c0,0-0.1-0.3-0.1-0.7c0-0.5,0.1-1.1,0.7-1.7c0.6-0.6,1.5-0.9,2.9-0.9c0.2,0,0.5,0,0.7,0
h0.1h0.1h0.1c0.2,0,0.4-0.1,0.6-0.2c0.2-0.2,0.3-0.3,0.3-0.7c0-0.1,0-0.3,0-0.5c-0.1-0.3,0.1-0.5,0.4-0.6c0.3-0.1,0.5,0.1,0.6,0.4
c0,0.3,0.1,0.5,0.1,0.7c0,0.7-0.3,1.2-0.7,1.5c-0.2,0.1-0.4,0.2-0.6,0.3c0.1,0.3,0.1,0.6,0.1,0.9c0,2.5-2,4.5-4.5,4.5
c-2.5,0-4.5-2-4.5-4.5C322.2,113.5,322.9,112.2,324.1,111.3z"/>


<path class="shape-logo" d="M347.8,117c0.2-0.2,0.4-0.2,0.6-0.1c1,0.8,2.7,1.8,4.5,1.8c1.2,0,2.3-0.4,3-0.9c0.8-0.6,1.2-1.3,1.2-2.1
c0-0.8-0.4-1.4-1.1-1.9c-0.8-0.5-1.9-0.9-3.2-1.1h0c-1.3-0.2-2.4-0.6-3.3-1.2c-0.8-0.6-1.4-1.4-1.4-2.4c0-1,0.6-2,1.4-2.6
c0.9-0.6,2-1,3.3-1c1.8,0,3.2,0.9,4.3,1.6c0.2,0.1,0.3,0.4,0.1,0.6c-0.1,0.2-0.4,0.3-0.6,0.1c-1.1-0.7-2.3-1.5-3.8-1.5
c-1.1,0-2.1,0.3-2.8,0.8c-0.7,0.5-1.1,1.2-1.1,1.9c0,0.7,0.3,1.2,1,1.7c0.7,0.5,1.7,0.8,3,1h0c1.4,0.3,2.6,0.7,3.5,1.3
c0.9,0.6,1.5,1.5,1.5,2.6c0,1.1-0.6,2.1-1.6,2.8s-2.2,1.1-3.6,1.1c-2.1,0-4-1.1-5.1-2C347.7,117.5,347.7,117.2,347.8,117z"/>


<path class="shape-logo" d="M369.4,106.2c0-0.3,0.2-0.5,0.5-0.5h0.1h3.9c2.2,0,3.9,1.8,3.9,4s-1.8,3.9-3.9,3.9l-3.4,0v5.4
c0,0.3-0.2,0.5-0.5,0.5c-0.3,0-0.5-0.2-0.5-0.5V106.2z M373.7,112.7c1.6,0,3-1.4,3-3c0-1.6-1.3-3-3-3h-3.4v6H373.7z"/>


<path class="shape-logo" d="M394.7,116h-6.3l-1.2,3.3c-0.1,0.2-0.3,0.3-0.5,0.3c0,0-0.1,0-0.2,0c-0.2-0.1-0.4-0.4-0.3-0.6l4.8-12.8
c0.1-0.2,0.3-0.3,0.5-0.3c0.2,0,0.4,0.1,0.5,0.3l4.8,12.8c0.1,0.2,0,0.5-0.3,0.6c-0.1,0-0.1,0-0.2,0c-0.2,0-0.4-0.1-0.5-0.3
L394.7,116z M388.8,115.1h5.6l-2.8-7.4L388.8,115.1z"/>


</svg>
