<svg width="1370" height="355" viewBox="0 0 1370 355" fill="none" xmlns="http://www.w3.org/2000/svg">
<g clip-path="url(#clip0)">
<path fill-rule="evenodd" clip-rule="evenodd" d="M332.166 89.055L290.276 21.9588C271.994 -7.31959 226.266 -7.31959 207.984 21.9588L0 355H116.984C147.357 355 175.452 340.006 190.638 315.696L332.166 89.055Z" fill="#FF6600"/>
<path fill-rule="evenodd" clip-rule="evenodd" d="M332.165 89.0547H415.945C452.508 89.0547 475.372 125.653 457.09 154.953L415.201 222.027L332.165 89.0547Z" fill="white"/>
<path fill-rule="evenodd" clip-rule="evenodd" d="M498.236 355H400.734C370.264 355 351.215 324.502 366.45 300.103L415.201 222.027L498.236 355Z" fill="#FF6600"/>
<path d="M588.301 275.261H641.323V285.752H601.665V296.554H637.508V306.402H601.665V318.003H641.323V328.494H588.301V275.261Z" fill="white"/>
<path d="M670.689 275.261H681.893L720.064 308.709V275.261H733.451V328.494H722.175L684.076 295.046V328.494H670.689V275.261Z" fill="white"/>
<path d="M763.513 275.261H816.535V285.752H776.9V296.554H812.744V306.402H776.9V318.003H816.535V328.494H763.513V275.261Z" fill="white"/>
<path d="M845.924 275.261H889.23C900.506 275.261 906.72 282.248 906.72 289.989C906.72 297.73 902.161 304.717 891.653 304.717L912.262 328.494H896.835L876.226 304.717H859.192L859.264 328.494H845.9V275.261H845.924ZM886.519 295.09C891.269 295.09 893.356 293.138 893.356 289.989C893.356 286.75 891.173 284.887 886.519 284.887H859.144L859.216 295.09H886.519V295.09Z" fill="white"/>
<path d="M930.591 301.878C930.591 286.063 943.739 274.107 963.388 274.107C982.053 274.107 995.489 281.937 995.801 293.649H982.03C981.718 287.46 974.568 284.599 963.364 284.599C951.704 284.599 943.931 291.674 943.931 301.878C943.931 312.014 951.704 319.156 963.364 319.156C972.769 319.156 980.542 316.206 982.341 309.752H967.658V300.902H996.664V328.494H987.955L987.332 318.424C982.893 326.187 973.8 329.648 963.388 329.648C943.715 329.648 930.591 317.692 930.591 301.878Z" fill="white"/>
<path d="M1042.78 309.33L1012.45 275.261H1028.93L1049.45 298.972L1070.06 275.261H1086.54L1056.14 309.264V328.494H1042.78V309.33Z" fill="white"/>
<path d="M880.377 156.772H841.27V136.721H945.082V142.133C945.082 150.229 938.005 156.772 929.248 156.772H905.856V222.006H880.377V156.772V156.772Z" fill="white"/>
<path d="M977.447 136.721H1048.73C1067.01 136.721 1077.11 144.928 1077.11 160.565C1077.11 176.203 1070.03 185.452 1053 185.452H1051.82L1085.12 222.006H1056.31L1024.52 185.452H1002.78L1002.85 207.3C1002.88 215.418 995.777 221.983 987.02 221.983H977.423V136.721H977.447ZM1043.04 169.083C1048.68 169.083 1051.63 166.709 1051.63 162.096C1051.63 157.482 1048.68 154.976 1043.04 154.976H1002.76L1002.9 169.083H1043.04Z" fill="white"/>
<path d="M1114.8 179.374C1114.8 153.711 1136.13 135.235 1170.56 135.235C1205.13 135.235 1226.43 153.733 1226.43 179.374C1226.43 205.037 1205.1 223.513 1170.56 223.513C1136.1 223.513 1114.8 205.015 1114.8 179.374ZM1200.95 179.374C1200.95 164.447 1189.85 155.286 1170.56 155.286C1151.39 155.286 1140.28 164.447 1140.28 179.374C1140.28 194.302 1151.39 203.462 1170.56 203.462C1189.85 203.462 1200.95 194.302 1200.95 179.374Z" fill="white"/>
<path d="M1266.81 136.721H1286.87L1344.52 185.408V136.721H1370V222.006H1349.82L1292.31 173.341V207.366C1292.31 215.462 1285.21 222.006 1276.48 222.006H1266.84V136.721H1266.81Z" fill="white"/>
<path d="M630.167 136.721H616.42H602.672L549.363 222.006H568.484C574.218 222.006 579.496 219.144 582.303 214.508L588.301 204.572H616.444H644.562L655.094 221.983H683.501L630.167 136.721ZM616.42 184.543H600.393L616.42 157.948L632.446 184.543H616.42Z" fill="white"/>
<path d="M738.226 162.273C738.226 154.887 749.334 153.578 761.929 153.822C776.372 154.022 780.667 159.501 781.531 162.562H808.905C807.586 146.015 787.984 135.213 759.794 135.213C731.532 135.213 712.626 142.288 712.626 162.961C712.626 197.94 786.665 184.786 786.665 196.453C786.665 203.352 773.541 205.148 759.794 204.904C744.823 204.616 739.377 199.248 738.154 196.209H710.635C711.475 212.734 731.844 223.492 762.073 223.492C792.231 223.492 812.288 213.887 812.288 195.744C812.264 163.227 738.226 174.872 738.226 162.273Z" fill="white"/>
</g>
<defs>
<clipPath id="clip0">
<rect width="1370" height="355" fill="white"/>
</clipPath>
</defs>
</svg>
